<svg xmlns="http://www.w3.org/2000/svg" width="16" height="16">
  <path d="M 1 1 L 0 6 L 1 6 L 1 8.0078125 L 1 10 C 1 8.9092972 1.9092972 8 3 8 L 6 8 L 6 7.4199219 L 6 7 L 6 6 L 6.984375 6 L 12.5 6 L 14 6 L 14 8 L 14 9 L 14 10 L 15 10 L 15 6 L 16 6 L 16.140625 6 L 14.890625 1 L 14.300781 1 L 12 1 L 1 1 z M 6 2 L 12 2 L 14.109375 2 L 14.859375 5 L 12.5 5 L 5.5 5 L 6 2 z M 7 7 L 7 9 L 3 9 C 2.446 9 2 9.446 2 10 L 2 14 L 3 14 L 4 14 L 4 11 L 7 11 L 7 13 L 10 10 L 7 7 z M 11 11 L 11 16 L 16 16 L 16 11 L 11 11 z M 5 12 L 5 14 C 4.9999448 14.552262 4.5522619 14.999945 4 15 L 6 15 L 7.9921875 15 L 10 15 L 10 14 L 8.5800781 14 L 7.0292969 14 L 6 14 L 6 13 L 6 12 L 5 12 z M 12 12 L 13 12 L 13 13 L 14 13 L 14 12 L 15 12 L 15 14 L 14 14 L 14 15 L 13 15 L 13 14 L 12 14 L 12 12 z " fill="#c0bfbc" />
</svg>
