<svg xmlns="http://www.w3.org/2000/svg" width="16" height="16">
  <path fill="#c0bfbc" d="m 11,11 v 5 h 5 v -5 z m 1,1 h 1 v 1 h 1 v -1 h 1 v 2 h -1 v 1 h -1 v -1 h -1 z" />
  <path d="M 4.5117188 4 L 4.5117188 6 A 1.0001 1.0001 0 0 1 3.5117188 7 L 2.5117188 7 L 1.5117188 7 A 1.0001 1.0001 0 0 1 0.51171875 6 L 0.51171875 4.15625 C 0.2111688 4.3341715 0 4.6475146 0 5.0234375 L 0 14.976562 C 0 15.543477 0.45652287 16 1.0234375 16 L 10 16 L 10 14 C 7.784 14 6 12.216 6 10 L 6 6 L 10 6 C 12.216 6 14 7.784 14 10 L 16 10 L 16 5.0234375 C 16 4.4565229 15.543478 4 14.976562 4 L 8.3144531 4 L 7.0664062 4.8320312 A 1.0001 1.0001 0 0 1 5.5117188 4 L 4.5117188 4 z M 10 8 C 8.892 8 8 8.892 8 10 C 8 11.108 8.892 12 10 12 L 10 10 L 12 10 C 12 8.892 11.108 8 10 8 z " fill="#c0bfbc" />
  <path d="m 6.5116558,0 v 1 h -4 c -0.554,0 -1,0.446 -1,1 v 4 h 1 1 V 3 h 3 v 1 l 3,-2 z" fill="#c0bfbc" />
</svg>
