<?xml version="1.0" encoding="UTF-8"?>
<svg width="128" height="128" version="1.1" viewBox="0 0 128 128.00001" xmlns="http://www.w3.org/2000/svg">
<defs>
<linearGradient id="c" x1="10" x2="10" y1="3" y2="37" gradientTransform="matrix(2 0 0 2 -4.663e-7 26)" gradientUnits="userSpaceOnUse">
<stop stop-color="#acaba8" offset="0"/>
<stop stop-color="#cac9c6" offset="1"/>
</linearGradient>
<linearGradient id="b" x1="3" x2="29" y1="17" y2="17" gradientTransform="matrix(4 0 0 4 -2.663e-7 4)" gradientUnits="userSpaceOnUse">
<stop stop-color="#9a9996" offset="0"/>
<stop stop-color="#deddda" offset=".037101"/>
<stop stop-color="#9a9996" offset=".076507"/>
<stop stop-color="#9a9996" offset=".92289"/>
<stop stop-color="#deddda" offset=".96229"/>
<stop stop-color="#9a9996" offset="1"/>
</linearGradient>
<linearGradient id="a" x1="13.17" x2="13" y1="21" y2="11" gradientTransform="scale(4)" gradientUnits="userSpaceOnUse">
<stop stop-color="#f6f5f4" offset="0"/>
<stop stop-color="#deddda" offset="1"/>
</linearGradient>
</defs>
<rect x="12" y="44" width="104" height="68" ry="8" stroke-width="4"/>
<rect x="12" y="36" width="104" height="68" ry="8" fill="url(#b)" stroke-width="4"/>
<rect x="12" y="32" width="104" height="68" ry="8" fill="url(#c)" stroke-width="4"/>
<rect x="108" y="92" width="4" height="4" ry="2" fill="#77767b" stroke-width="4"/>
<rect x="108" y="36" width="4" height="4" ry="2" fill="#77767b" stroke-width="4"/>
<rect x="52" y="36" width="4" height="4" ry="2" fill="#77767b" stroke-width="4"/>
<rect x="20" y="36" width="4" height="4" ry="2" fill="#77767b" stroke-width="4"/>
<rect x="20" y="92" width="4" height="4" ry="2" fill="#77767b" stroke-width="4"/>
<rect x="52" y="92" width="4" height="4" ry="2" fill="#77767b" stroke-width="4"/>
<path d="m32 40a4.0004 4.0004 0 0 0 -4 4c0 2.2565-1.7435 4-4 4a4.0004 4.0004 0 0 0 -4 4v32a4.0004 4.0004 0 0 0 4 4c2.2565 0 4 1.7435 4 4a4.0004 4.0004 0 0 0 4 4h12a4.0004 4.0004 0 0 0 4 -4c0-2.2538 1.7396-3.9959 3.9922-4 0.0426 0.0014 0.08632 0.0052 0.125 8e-3a4.0004 4.0004 0 0 0 0.56248 -8e-3h6.5624c5.1432 4.8128 11.847 7.9952 18.898 8 7.3304 0 14.614-3.0198 19.797-8.2032s8.2032-12.466 8.2032-19.797-3.0198-14.614-8.2032-19.797c-5.1832-5.1832-12.466-8.2032-19.797-8.2032a4.0004 4.0004 0 0 0 -8e-3 0c-7.0416 0.0104-13.73 3.1955-18.867 8h-7.2656c-2.2565 0-4-1.7435-4-4a4.0004 4.0004 0 0 0 -4 -4z" fill="#acaba8" stroke-width="4"/>
<path d="m32 36a4.0004 4.0004 0 0 0 -4 4c0 2.2565-1.7435 4-4 4a4.0004 4.0004 0 0 0 -4 4v32a4.0004 4.0004 0 0 0 4 4c2.2565 0 4 1.7435 4 4a4.0004 4.0004 0 0 0 4 4h12a4.0004 4.0004 0 0 0 4 -4c0-2.2538 1.7396-3.9959 3.9922-4 0.0426 0.0014 0.08632 0.0052 0.125 8e-3a4.0004 4.0004 0 0 0 0.56248 -8e-3h6.5624c5.1432 4.8128 11.847 7.9952 18.898 8 7.3304 0 14.614-3.0198 19.797-8.2032s8.2032-12.466 8.2032-19.797-3.0198-14.614-8.2032-19.797c-5.1832-5.1832-12.466-8.2032-19.797-8.2032a4.0004 4.0004 0 0 0 -8e-3 0c-7.0416 0.0106-13.73 3.1955-18.867 8h-7.2656c-2.2565 0-4-1.7435-4-4a4.0004 4.0004 0 0 0 -4 -4z" fill="url(#a)" stroke-width="4"/>
<rect x="72" y="52" width="16" height="16" ry="8" fill="#adaba7" fill-opacity=".9959" stroke-width="4"/>
<rect x="72" y="56" width="16" height="16" ry="8" fill="#cac9c6" fill-opacity=".9959" stroke-width="4"/>
<path d="m71.242 16v12c-22.091 0-40 17.909-40 40v8h16v-8c0-13.255 10.745-24 24-24v12l20-20v-4z" fill="#26a269"/>
<path d="m71.242 12v12c-22.091 0-40 17.909-40 40v8h16v-8c0-13.255 10.745-24 24-24v12l20-20z" fill="#33d17a"/>
</svg>
